<?xml version="1.0" encoding="UTF-8" standalone="no"?><!DOCTYPE svg PUBLIC "-//W3C//DTD SVG 1.1//EN" "http://www.w3.org/Graphics/SVG/1.1/DTD/svg11.dtd"><svg width="100%" height="100%" viewBox="0 0 4445 3334" version="1.1" xmlns="http://www.w3.org/2000/svg" xmlns:xlink="http://www.w3.org/1999/xlink" xml:space="preserve" xmlns:serif="http://www.serif.com/" style="fill-rule:evenodd;clip-rule:evenodd;stroke-linecap:round;stroke-linejoin:round;stroke-miterlimit:1.5;"><path d="M3439.04,1144.46C3530.73,879.339 3629.42,568.737 3730.94,248.704C3779.26,195.029 3809.18,203.865 3830.34,242.492C3816.12,801.596 3819.11,1497 3901.34,1928.27C4093.36,1825.64 4095.78,1308.93 4095.78,1308.93C4107.38,1443.93 4135.88,1836.12 3929.93,2014.08C4005.85,2365.55 4123.28,2474.88 4358.39,2162.12C4227.03,2467.04 4003.94,2520.73 3845.97,2063.04C3644.74,2156.62 3376.83,2144.64 3141.9,2008.34C2955.89,2342.29 2644.46,2512.03 2453.67,2457.58C1670.44,2234.07 2893.27,1057.62 2761.81,1963.32C2820.48,1457 2317.27,1820.59 2326.2,2066.69C2337.11,2367.29 2725.69,2538.03 3084.53,1960.89C3064.88,1942.57 3046.34,1922.9 3029.04,1901.87C2750.59,1563.3 3006.22,907.685 3439.04,1144.46ZM3811.71,1978.74C3726.3,1703.71 3669.29,1276.82 3675.03,664.933C3619.46,844.148 3561.93,1018.84 3502.54,1184.29C3565.41,1228.71 3631.94,1290.29 3701.35,1372C3625.68,1299.87 3556.14,1247.63 3492.68,1211.65C3399.07,1469.95 3291.3,1721.62 3189.18,1914.42C3374.58,2061.08 3616.39,2088.5 3811.71,1978.74ZM3426.99,1179.13C3146.44,1061.3 3002.98,1280.53 2992.34,1448.26C2978.45,1667.22 3035.45,1785.41 3127.81,1867.3C3171.8,1790.87 3231.03,1687.14 3273.53,1586.17C3321.6,1471.99 3373.04,1333.8 3426.99,1179.13Z" style="fill:none;stroke:#000;stroke-width:15.44px;"/><path d="M2314.14,1044.14L2314.15,1044.11C2625.29,310.99 2737.43,340.176 2849.39,346.497C3173.79,427.768 2961.23,718.783 2590.28,944.577L2590.27,944.603C2404.17,1377.51 2096.96,2008.35 1680.63,2361.55C1680.63,2361.55 1969.76,2521.49 2048.44,2570.58C2535.85,2874.69 3146.35,2825 3365.02,2744.48C3308.31,2800.65 2978.47,2904.66 2725.13,2891.62C2403.81,2875.07 2181.26,2815.5 1842.98,2595.38C1754.09,2542.35 1668.61,2494.3 1588.36,2453.86C1480.21,2500.55 1287.39,2604.19 1167.57,2633.33C797.785,2723.26 703.735,2147.92 1259.02,2210.21C1374.56,2223.17 1438.98,2258.14 1552.79,2304.8C1744.67,2136.54 1980.88,1847.47 2162.85,1420.79C2209.47,1299.3 2252.54,1191.44 2292.46,1095.69C2023.53,1207.37 1728.53,1266.09 1502.84,1202.61C1781.8,1256.59 2072.71,1173.09 2314.14,1044.14ZM1444.23,2387.55C1359.02,2352.71 1282.52,2330.56 1217.67,2325.36C1017.64,2299.29 910.086,2534.03 1159.62,2527.04C1222.67,2512.67 1324.1,2471.48 1444.23,2387.55ZM2646.05,815.541L2646.27,815.354C2810.54,670.927 2900.2,529.372 2861.81,470.744C2804.69,471.817 2736.02,609.838 2646.05,815.541Z" style="fill:none;stroke:#000;stroke-width:15.44px;"/><path d="M1126.65,1046.89C831.678,663.753 1299.11,488.001 1638.76,597.147C1879.01,709.144 1649.24,874.995 1292.61,1039.16C1292.61,1039.16 1295.59,1037.81 1292.61,1039.16C1333.85,1094.42 1383.55,1115.88 1482.92,1193.97C-299.358,2425.59 1477.25,3794.95 2068.15,2417.12C1451.81,4083.74 -442.901,2347.49 1255.31,1182.68C1223.75,1154.39 1195.99,1126.98 1171.78,1100.45L1171.77,1100.46C1170.44,1101.06 -124.738,1660.85 372.838,2084.58C-284.29,1711.73 326.927,1269.27 841.58,1145.12C950.784,1118.78 1036.12,1081.81 1126.65,1046.89L1126.65,1046.89ZM1262.21,989.481C1689.77,798.319 1638.76,597.147 1406.58,707.321C1253.66,785.143 1212.91,885.951 1262.2,989.455L1262.21,989.481Z" style="fill:none;stroke:#000;stroke-width:15.44px;"/></svg>