<svg width="580" height="400" xmlns="http://www.w3.org/2000/svg">
 <!-- Created with Method Draw - http://github.com/duopixel/Method-Draw/ -->
 <g>
  <title>background</title>
  <rect fill="#fff" id="canvas_background" height="402" width="582" y="-1" x="-1"/>
  <g display="none" overflow="visible" y="0" x="0" height="100%" width="100%" id="canvasGrid">
   <rect fill="url(#gridpattern)" stroke-width="0" y="0" x="0" height="100%" width="100%"/>
  </g>
 </g>
 <g>
  <title>Layer 1</title>
  <path id="svg_2" d="m436.57585,188.10983c-13.93232,-2.34332 -28.43307,-3.8862 -40.20767,-4.30382l-2.07651,-0.0696c0.47562,-1.04405 0.83524,-1.75169 0.95125,-1.8561c0.25521,-0.20881 0.46402,-1.09046 0.48723,-1.9489c0,-0.47562 0.20881,-2.0185 0.53363,-4.06021c3.19016,0.11601 7.42438,0.20881 12.04142,0.24361c17.83012,0.13921 36.48388,1.57768 49.27934,3.8398c7.62159,1.34567 10.13892,1.29927 4.51263,-0.0696c-5.69589,-1.38047 -22.58636,-3.41058 -36.04306,-4.29222c-9.03687,-0.61483 -21.99473,-0.84684 -29.62793,-0.71924c0.22041,-1.32247 0.47562,-2.79574 0.74244,-4.30382c1.07886,-5.8351 1.43847,-11.705 1.46168,-23.38681c0.0232,-18.12013 -0.95125,-23.10839 -6.85595,-35.09181c-2.40132,-4.89545 -5.11586,-9.04847 -8.39883,-12.80706c2.86535,-8.45684 2.79574,-21.55391 -0.17401,-33.0385c-2.44773,-9.41969 -3.30617,-10.02292 -11.84421,-8.21322c-7.23877,1.54288 -13.03907,3.64259 -20.47506,7.38958c-3.51498,1.77489 -8.36403,4.53583 -11.87901,6.70515c-9.16447,-3.22497 -18.64216,-5.35948 -28.75788,-6.50794c-10.25493,-1.16006 -35.39342,-0.51043 -44.31428,1.13686c-8.72365,1.61248 -16.57725,3.58458 -23.68842,5.92791c-3.54978,-2.19251 -8.70045,-5.15067 -12.37784,-7.00676c-7.47079,-3.75859 -13.27108,-5.8467 -20.53306,-7.38958c-8.51484,-1.82129 -9.39648,-1.20646 -11.83261,8.21322c-3.01616,11.6354 -3.03936,24.95289 -0.058,33.38652c0.34802,0.96285 0.55683,1.64728 0.63803,2.18091c-12.08782,15.21998 -16.03203,32.24966 -13.41029,56.01929c0.68444,6.19472 1.74009,11.87901 3.21337,17.08768c-7.7144,-0.0464 -18.68856,0.23201 -26.61177,0.74244c-13.47989,0.89325 -30.37037,2.90015 -36.06626,4.28062c-5.61469,1.36887 -3.12056,1.41527 4.51263,0.0812c12.79546,-2.25052 31.46082,-3.71219 49.27934,-3.8398c3.36417,-0.0116 6.50794,-0.0812 9.21087,-0.15081c0.81204,2.74934 1.74009,5.37108 2.79574,7.86521l-0.0812,0.0116c-11.77461,0.40602 -26.26375,1.9489 -40.19607,4.29222c-10.45214,1.75169 -25.88093,5.25507 -27.67903,6.26432c-1.8909,1.05565 -0.34802,0.82364 7.7492,-1.22966c14.76756,-3.73539 33.96655,-6.60074 57.74778,-8.59604l2.65654,-0.23201c5.10426,11.85581 12.96947,20.90428 24.08284,27.95744c6.79795,4.32702 17.69091,8.77005 23.17799,9.46609c1.50808,0.18561 5.8931,1.09046 9.7445,1.9953c3.863,0.90485 11.41499,2.26212 16.77446,3.03936l0.12761,0c-0.10441,0.0696 -0.19721,0.11601 -0.29001,0.18561c-6.49633,3.37577 -10.71895,8.63084 -13.5611,16.90207c-1.27607,0.38282 -2.86535,0.90485 -4.58224,1.49648c-6.13672,2.08811 -8.52644,2.51733 -14.74436,2.56373c-6.44993,0.0464 -7.98121,-0.23201 -11.83261,-2.04171c-5.60309,-2.61013 -10.82336,-7.41278 -14.30354,-13.14348c-5.8119,-9.58209 -15.85802,-16.35684 -24.23365,-16.35684c-7.15757,0 -8.51484,2.90015 -3.34097,7.13437c7.7956,6.36873 13.6191,12.86506 16.00883,17.83012c1.34567,2.78414 3.41058,7.08797 4.60544,9.55889c1.26447,2.63334 3.9674,6.20632 6.54274,8.67725c6.05551,5.7771 11.90221,8.53804 20.62586,9.83731c5.8467,0.85844 7.28518,0.85844 14.18753,-0.0232c3.32937,-0.40602 6.13672,-0.88165 8.65405,-1.47328c0,2.83055 0,6.09031 0,9.91851c0,20.48666 -0.24361,27.0758 -1.05565,29.0015c-1.53128,3.66579 -4.96506,7.43598 -8.30603,9.12967c-3.32937,1.69369 -4.36182,3.56138 -2.95815,5.27827c0.77724,0.92805 2.27372,1.09046 7.29678,0.76564c9.53569,-0.59163 16.27564,-4.11821 19.70942,-10.33613c1.10206,-1.9953 1.35727,-6.00911 1.70529,-26.89019c0.37122,-22.65597 0.53363,-24.83688 2.0069,-28.07345c0.89325,-1.9257 2.18091,-4.01381 2.90015,-4.58224c1.20646,-0.99765 1.28767,0.97445 1.28767,28.07345c-0.0116,29.90634 -0.31322,33.51413 -3.30617,39.26802c-0.67283,1.31087 -1.9489,3.01616 -2.84215,3.8282c-1.56608,1.42687 -2.22731,5.08106 -1.13686,6.18312c1.79809,1.78649 10.81176,-1.02085 15.73041,-4.89545c8.37563,-6.63554 9.37328,-12.12262 9.44289,-51.75027l0.0348,-23.2476l2.54053,0.24361l2.54053,0.23201l0.41762,30.40517c0.47562,34.23336 0.54523,34.73219 6.36873,41.34453c3.30617,3.73539 6.63554,5.8003 12.05302,7.41278c7.25037,2.18091 9.43129,-1.18326 4.55903,-7.01836c-5.30147,-6.34553 -5.55669,-8.77005 -5.26667,-46.33279c0.19721,-24.08284 0.19721,-24.08284 1.75169,-22.67917c3.27137,2.96975 3.8978,7.842 3.8978,30.42837c0,28.05025 0.80044,30.71838 10.70735,35.61384c4.62864,2.26212 5.92791,2.54053 11.85581,2.56373c6.31073,0.0232 6.69354,-0.0696 6.92556,-1.71689c0.19721,-1.33407 -0.58003,-2.23892 -3.52658,-4.03701c-3.863,-2.37812 -6.54274,-5.41748 -8.22482,-9.24568c-0.63803,-1.47328 -1.06726,-11.12497 -1.35727,-30.9968c-0.41762,-27.76023 -0.51043,-29.0247 -2.23892,-33.37492c-2.33172,-5.8467 -5.8931,-10.46374 -10.40574,-13.5263c-1.17166,-0.76564 -2.34332,-1.40367 -3.863,-1.8793c1.8677,-0.18561 3.67739,-0.38282 5.42908,-0.63803c18.23614,-2.42452 27.87624,-4.44303 35.61384,-7.43598c16.36844,-6.29912 27.43541,-16.76286 33.43292,-31.60003c0.53363,-1.32247 1.06726,-2.57533 1.51968,-3.58458l4.61704,0.38282c23.79283,2.0069 42.99182,4.87225 57.75938,8.61924c8.09722,2.05331 9.6401,2.29692 7.7492,1.21806c-1.76329,-0.98605 -17.19209,-4.47783 -27.63262,-6.22952zm-69.766,-0.35962c-2.70294,5.93951 -10.24333,13.5727 -16.33364,16.56565c-6.00911,2.96975 -15.4288,5.23187 -26.10135,6.31073c-7.29678,0.74244 -47.99167,0.96285 -54.70842,0.30162c-22.23835,-2.18091 -34.69739,-6.46153 -43.88506,-15.03438c-8.70045,-8.14362 -12.76066,-19.19899 -12.05302,-32.80649c0.45242,-8.51484 2.50573,-13.86271 7.87681,-20.35905c4.88385,-5.9163 10.02292,-9.57049 16.07843,-11.42659c5.06946,-1.55448 20.62586,-1.69369 41.54174,-0.34802c9.24568,0.59163 16.89047,0.59163 26.12455,0c21.87873,-1.38047 36.48388,-1.22966 41.87816,0.44082c8.48004,2.62174 16.20604,9.6749 20.84627,19.07138c2.08811,4.19942 2.49413,5.98591 2.79574,12.47064c0.41762,8.93246 -1.12526,18.42175 -4.06021,24.81368zm-110.32169,-38.35158c-12.44744,-2.18091 -19.55861,19.12939 -10.01132,30.01075c4.53583,5.16227 8.56124,6.00911 13.5959,2.87695c4.66344,-2.91175 7.19237,-8.35243 7.19237,-15.40559c0,-9.40809 -4.28062,-16.32204 -10.77696,-17.4821zm75.55469,1.27607c-12.44744,-2.18091 -19.57021,19.10618 -10.02292,29.99915c4.54743,5.16227 8.56124,6.02071 13.6075,2.86535c4.65184,-2.90015 7.19237,-8.35243 7.19237,-15.40559c0,-9.37328 -4.28062,-16.31044 -10.77696,-17.4589zm-33.47933,41.90136c-0.26681,0.85844 -1.56608,2.13451 -2.87695,2.81895c-3.31777,1.70529 -5.70749,1.11366 -9.21087,-2.07651c-2.16931,-1.9605 -3.15536,-2.99295 -3.8166,-0.93965c-0.61483,1.9025 3.24817,5.71909 6.22952,6.89076c2.73774,1.09046 4.69824,1.12526 7.668,-0.11601c2.94655,-1.22966 5.52188,-4.53583 5.52188,-6.68194c0,-1.9953 -2.86535,-1.9025 -3.51498,0.10441zm-3.67739,-6.67034c1.8909,-1.67049 2.32012,-5.10426 0.51043,-6.92556s-5.48708,-1.54288 -6.92556,0.49883c-1.67049,2.38972 -0.77724,4.21102 0.41762,6.14832c1.8561,1.43847 4.35022,1.72849 5.99751,0.27841z" fill-opacity="null" stroke-opacity="null" stroke-width="1.5" stroke="#000" fill="#fff"/>
 </g>
</svg>
