<svg width="580" height="400" xmlns="http://www.w3.org/2000/svg">
 <!-- Created with Method Draw - http://github.com/duopixel/Method-Draw/ -->
 <g>
  <title>background</title>
  <rect fill="#fff" id="canvas_background" height="402" width="582" y="-1" x="-1"/>
  <g display="none" overflow="visible" y="0" x="0" height="100%" width="100%" id="canvasGrid">
   <rect fill="url(#gridpattern)" stroke-width="0" y="0" x="0" height="100%" width="100%"/>
  </g>
 </g>
 <g>
  <title>Layer 1</title>
  <path id="svg_3" d="m376.92397,45.24147l-249.61539,0c-12.52615,0 -22.69231,9.99385 -22.69231,22.30769l0,245.38462c0,12.31385 10.16615,22.30769 22.69231,22.30769l249.61539,0c12.52615,0 22.69231,-9.99385 22.69231,-22.30769l0,-245.38462c0,-12.31385 -10.16615,-22.30769 -22.69231,-22.30769zm-181.8902,263.85538l-45.38462,0l0,-156.15385l45.38462,0l0,156.15385zm-22.69231,-172.88462c-15.69173,0 -28.36539,-12.48115 -28.36539,-27.88462s12.67365,-27.88462 28.36539,-27.88462s28.36539,12.48115 28.36539,27.88462s-12.67365,27.88462 -28.36539,27.88462zm181.53847,172.88462l-45.38462,0l0,-94.80769c0,-4.46154 -4.5725,-11.76731 -7.79481,-13.52962c-4.25481,-2.35346 -14.3075,-2.55423 -18.89135,-0.37923l-18.69846,8.845l0,99.87154l-45.38462,0l0,-156.15385l45.38462,0l0,6.84846c17.96096,-8.06423 42.88846,-7.27231 59.79423,2.05231c17.94962,9.88231 30.975,31.94462 30.975,52.44538l0,94.80769z" fill-opacity="null" stroke-opacity="null" stroke-width="1.5" stroke="#000" fill="#fff"/>
 </g>
</svg>
